<?xml version="1.0" encoding="UTF-8" standalone="no"?>
<svg
   xmlns:dc="http://purl.org/dc/elements/1.1/"
   xmlns:cc="http://creativecommons.org/ns#"
   xmlns:rdf="http://www.w3.org/1999/02/22-rdf-syntax-ns#"
   xmlns:svg="http://www.w3.org/2000/svg"
   xmlns="http://www.w3.org/2000/svg"
   xmlns:sodipodi="http://sodipodi.sourceforge.net/DTD/sodipodi-0.dtd"
   xmlns:inkscape="http://www.inkscape.org/namespaces/inkscape"
   version="1.1"
   id="svg2"
   xml:space="preserve"
   width="866.66669"
   height="666.66669"
   viewBox="0 0 866.66669 666.66669"
   sodipodi:docname="5378866.eps"><metadata
     id="metadata8"><rdf:RDF><cc:Work
         rdf:about=""><dc:format>image/svg+xml</dc:format><dc:type
           rdf:resource="http://purl.org/dc/dcmitype/StillImage" /></cc:Work></rdf:RDF></metadata><defs
     id="defs6" /><sodipodi:namedview
     pagecolor="#ffffff"
     bordercolor="#666666"
     borderopacity="1"
     objecttolerance="10"
     gridtolerance="10"
     guidetolerance="10"
     inkscape:pageopacity="0"
     inkscape:pageshadow="2"
     inkscape:window-width="640"
     inkscape:window-height="480"
     id="namedview4" /><g
     id="g10"
     inkscape:groupmode="layer"
     inkscape:label="ink_ext_XXXXXX"
     transform="matrix(1.3333333,0,0,-1.3333333,0,666.66667)"><g
       id="g12"
       transform="scale(0.1)"><path
         d="M 0,0 H 6500 V 5000 H 0 V 0"
         style="fill:#f5fafe;fill-opacity:1;fill-rule:nonzero;stroke:none"
         id="path14" /><path
         d="m 575.766,1369.49 c 70.074,-75.7 145.836,-143.89 226.066,-205.78 23.617,-18.22 133.637,-0.01 161.781,-0.01 376.537,0 753.077,0 1129.627,0 547.4,0 1094.81,0 1642.22,0 493.08,0 986.16,0 1479.25,0 155.8,0 311.6,0 467.39,0 39.92,0 115,-13.77 152.01,2.34 77.98,33.96 42.42,189.66 35.32,260.68 -11.01,110.08 -36.79,220.17 -95.72,315.09 -160.88,259.21 -442.25,351.77 -663.78,543.63 -216.45,187.46 -366.48,437.89 -544.36,662.27 -138.88,175.2 -296.1,335.85 -468.23,478.51 -109.71,90.92 -228.43,176.04 -364.95,216.9 -119.43,35.75 -246.94,35.78 -370.8,21.59 -362.98,-41.55 -710.76,-206.14 -973.03,-460.48 -296.11,-287.15 -541.92,-713.24 -932.65,-881.18 -214,-91.98 -455.44,-104.33 -669.933,-195.15 -214.489,-90.82 -409.985,-310.64 -349.766,-535.65 22.887,-85.5 79.434,-157.8 139.555,-222.76"
         style="fill:#d9effb;fill-opacity:1;fill-rule:nonzero;stroke:none"
         id="path16" /><path
         d="m 5686.93,2070.31 c 41.41,-6.94 85.74,-6.74 123.24,12.14 18.77,9.45 36.49,25.68 38.3,46.61 0.8,9.41 -1.71,18.77 -4.78,27.7 -25.85,75.13 -90.31,129.67 -154.59,176.38 -48,34.88 -100.26,68.68 -159.33,74.23 -124.6,11.73 -160.87,-86.66 -96.77,-176.39 59.64,-83.5 152.43,-143.66 253.93,-160.67"
         style="fill:#d9effb;fill-opacity:1;fill-rule:nonzero;stroke:none"
         id="path18" /><path
         d="m 2184.93,2726.11 c -367.99,93.47 -471.42,287.84 -471.42,287.84 H 1671 1331.36 1196.55 c 0,0 -103.44,-194.37 -471.421,-287.84 0,0 -243.902,-969.73 696.101,-1556.18 h 67.6 c 940,586.45 696.1,1556.18 696.1,1556.18"
         style="fill:#5f85cc;fill-opacity:1;fill-rule:nonzero;stroke:none"
         id="path20" /><path
         d="m 2069.09,2625.46 c -309.59,78.63 -396.61,242.16 -396.61,242.16 h -35.76 -285.74 -113.41 c 0,0 -87.02,-163.53 -396.597,-242.16 0,0 -205.196,-815.83 585.617,-1309.19 h 56.88 c 790.81,493.36 585.62,1309.19 585.62,1309.19"
         style="fill:#4c70c0;fill-opacity:1;fill-rule:nonzero;stroke:none"
         id="path22" /><path
         d="m 2019.42,2582.31 c -284.54,72.27 -364.52,222.57 -364.52,222.57 h -32.87 -262.63 -104.24 c 0,0 -79.98,-150.3 -364.523,-222.57 0,0 -188.602,-749.85 538.253,-1203.31 h 52.28 c 726.85,453.46 538.25,1203.31 538.25,1203.31"
         style="fill:#afcced;fill-opacity:1;fill-rule:nonzero;stroke:none"
         id="path24" /><path
         d="m 1944.44,2164.66 c 0,-270.29 -219.12,-489.42 -489.42,-489.42 -270.28,0 -489.399,219.13 -489.399,489.42 0,270.29 219.119,489.4 489.399,489.4 270.3,0 489.42,-219.11 489.42,-489.4"
         style="fill:#90b3e3;fill-opacity:1;fill-rule:nonzero;stroke:none"
         id="path26" /><path
         d="m 1867.27,2164.66 c 0,-227.68 -184.56,-412.25 -412.25,-412.25 -227.67,0 -412.24,184.57 -412.24,412.25 0,227.67 184.57,412.24 412.24,412.24 227.69,0 412.25,-184.57 412.25,-412.24"
         style="fill:#d4e7f7;fill-opacity:1;fill-rule:nonzero;stroke:none"
         id="path28" /><path
         d="m 1254.84,2138.15 177.45,-109.3 225.72,387.86 40.55,-27.31 -234.34,-476.8 -252.73,138.91 43.35,86.64"
         style="fill:#5f85cc;fill-opacity:1;fill-rule:nonzero;stroke:none"
         id="path30" /><path
         d="m 5322.34,2788 85.18,34.9 22.92,72.35 -49.53,77.58 85.16,34.89 22.93,72.35 -49.54,77.58 85.18,34.89 36.3,114.56 -26.5,211.45 -132.16,41.87 -137.13,-159.6 -431.53,-1361.97 295.79,-93.72 242.47,765.29 -49.54,77.58"
         style="fill:#5f85cc;fill-opacity:1;fill-rule:nonzero;stroke:none"
         id="path32" /><path
         d="m 4885.05,2201.17 -51.43,-162.32 295.79,-93.72 56.36,177.88 c -86.29,49.74 -186.31,78.35 -293.06,78.35 -2.57,0 -5.1,-0.16 -7.66,-0.19"
         style="fill:#4a71c0;fill-opacity:1;fill-rule:nonzero;stroke:none"
         id="path34" /><path
         d="m 4956.34,1999.96 -37.76,11.97 436.2,1376.69 37.75,-11.96 -436.19,-1376.7"
         style="fill:#4a71c0;fill-opacity:1;fill-rule:nonzero;stroke:none"
         id="path36" /><path
         d="m 4956.34,1999.96 59.64,188.21 c -12.96,2.78 -26.06,5.15 -39.32,7.05 l -58.08,-183.29 37.76,-11.97"
         style="fill:#3d60a2;fill-opacity:1;fill-rule:nonzero;stroke:none"
         id="path38" /><path
         d="m 4892.71,1342.34 c -152.24,0 -275.65,123.41 -275.65,275.64 0,152.23 123.41,275.63 275.65,275.63 152.22,0 275.63,-123.4 275.63,-275.63 0,-152.23 -123.41,-275.64 -275.63,-275.64 z m 0,792.07 c -285.23,0 -516.45,-231.21 -516.45,-516.43 0,-195.07 108.18,-364.83 267.79,-452.68 h 497.3 c 159.61,87.85 267.79,257.61 267.79,452.68 0,285.22 -231.22,516.43 -516.43,516.43"
         style="fill:#afcced;fill-opacity:1;fill-rule:nonzero;stroke:none"
         id="path40" /><path
         d="m 4892.71,1919.09 c 166.28,0 301.1,-134.81 301.1,-301.11 0,-166.3 -134.82,-301.11 -301.1,-301.11 -166.3,0 -301.12,134.81 -301.12,301.11 0,166.3 134.82,301.11 301.12,301.11 z m 0,-733.06 c 238.56,0 431.95,193.38 431.95,431.95 0,238.56 -193.39,431.96 -431.95,431.96 -238.57,0 -431.97,-193.4 -431.97,-431.96 0,-238.57 193.4,-431.95 431.97,-431.95"
         style="fill:#90b3e3;fill-opacity:1;fill-rule:nonzero;stroke:none"
         id="path42" /><path
         d="m 4892.71,1893.61 c 152.22,0 275.63,-123.4 275.63,-275.63 0,-152.23 -123.41,-275.64 -275.63,-275.64 -152.24,0 -275.65,123.41 -275.65,275.64 0,152.23 123.41,275.63 275.65,275.63 z m 0,-671.04 c 218.37,0 395.41,177.03 395.41,395.41 0,218.38 -177.04,395.41 -395.41,395.41 -218.39,0 -395.42,-177.03 -395.42,-395.41 0,-218.38 177.03,-395.41 395.42,-395.41"
         style="fill:#5f85cc;fill-opacity:1;fill-rule:nonzero;stroke:none"
         id="path44" /><path
         d="m 5769.95,1517.83 c -66.09,0 -119.67,53.58 -119.67,119.67 0,66.08 53.58,119.66 119.67,119.66 66.08,0 119.66,-53.58 119.66,-119.66 0,-66.09 -53.58,-119.67 -119.66,-119.67 z m 214.13,119.67 c 0,6.19 -0.41,12.29 -0.93,18.35 l 58.78,28.33 -24.51,75.43 -64.28,-11.65 c -6.35,10.51 -13.51,20.44 -21.51,29.67 l 30.92,57.5 -64.16,46.62 -44.96,-47 c -11.2,4.74 -22.97,8.38 -35.05,11.18 l -8.77,64.67 h -79.32 l -8.78,-64.67 c -12.08,-2.8 -23.83,-6.44 -35.05,-11.18 l -44.95,47 -64.17,-46.62 30.93,-57.5 c -8.01,-9.23 -15.17,-19.16 -21.51,-29.67 l -64.29,11.65 -24.51,-75.43 58.78,-28.33 c -0.52,-6.06 -0.93,-12.16 -0.93,-18.35 0,-6.2 0.41,-12.29 0.93,-18.35 l -58.78,-28.33 24.51,-75.43 64.29,11.65 c 6.34,-10.51 13.5,-20.44 21.51,-29.67 l -30.93,-57.5 64.17,-46.62 44.95,47 c 11.22,-4.74 22.97,-8.38 35.05,-11.18 l 8.78,-64.67 h 79.32 l 8.77,64.67 c 12.08,2.8 23.85,6.44 35.05,11.18 l 44.96,-47 64.16,46.62 -30.92,57.5 c 8,9.23 15.16,19.16 21.51,29.67 l 64.28,-11.65 24.51,75.43 -58.78,28.33 c 0.52,6.06 0.93,12.15 0.93,18.35"
         style="fill:#afcced;fill-opacity:1;fill-rule:nonzero;stroke:none"
         id="path46" /><path
         d="m 5769.95,1757.16 c 66.08,0 119.66,-53.58 119.66,-119.66 0,-66.09 -53.58,-119.67 -119.66,-119.67 -66.09,0 -119.67,53.58 -119.67,119.67 0,66.08 53.58,119.66 119.67,119.66 z m 0,-294.64 c 96.64,0 174.98,78.34 174.98,174.98 0,96.64 -78.34,174.98 -174.98,174.98 -96.64,0 -174.98,-78.34 -174.98,-174.98 0,-96.64 78.34,-174.98 174.98,-174.98"
         style="fill:#90b3e3;fill-opacity:1;fill-rule:nonzero;stroke:none"
         id="path48" /><path
         d="m 5673.52,2315.96 h -452.49 v 86.86 h 452.49 v -86.86"
         style="fill:#f9a743;fill-opacity:1;fill-rule:nonzero;stroke:none"
         id="path50" /><path
         d="M 5647.68,2489.68 H 5195.2 v 86.86 h 452.48 v -86.86"
         style="fill:#f9a743;fill-opacity:1;fill-rule:nonzero;stroke:none"
         id="path52" /><path
         d="m 5689.52,2576.54 h -452.49 v 86.86 h 452.49 v -86.86"
         style="fill:#fbc83c;fill-opacity:1;fill-rule:nonzero;stroke:none"
         id="path54" /><path
         d="m 5602.25,2402.82 h -452.48 v 86.86 h 452.48 v -86.86"
         style="fill:#fbc83c;fill-opacity:1;fill-rule:nonzero;stroke:none"
         id="path56" /><path
         d="m 4191.95,3390.12 -381.65,93.81 c -20.92,5.14 -33.72,26.28 -28.58,47.2 l 51.45,209.32 c 5.14,20.93 26.27,33.72 47.2,28.58 l 381.65,-93.81 c 20.93,-5.15 33.72,-26.28 28.59,-47.2 l -51.46,-209.32 c -5.14,-20.93 -26.27,-33.72 -47.2,-28.58"
         style="fill:#5f85cc;fill-opacity:1;fill-rule:nonzero;stroke:none"
         id="path58" /><path
         d="m 4169.4,3579.58 c 0,-73.59 -59.65,-133.24 -133.24,-133.24 -73.58,0 -133.23,59.65 -133.23,133.24 0,73.58 59.65,133.23 133.23,133.23 73.59,0 133.24,-59.65 133.24,-133.23"
         style="fill:#9fc6eb;fill-opacity:1;fill-rule:nonzero;stroke:none"
         id="path60" /><path
         d="m 3963.95,3534.47 28.46,115.81 c 2.45,9.98 14.48,14 22.44,7.49 l 105.5,-86.3 c 9.05,-7.4 5.57,-21.97 -5.85,-24.49 l -133.96,-29.51 c -10.12,-2.24 -19.07,6.93 -16.59,17"
         style="fill:#ffffff;fill-opacity:1;fill-rule:nonzero;stroke:none"
         id="path62" /><path
         d="m 3672.36,3573.97 -202.23,49.71 c -10.52,2.59 -16.96,13.22 -14.38,23.74 l 27.84,113.28 c 2.59,10.52 13.23,16.96 23.75,14.37 l 202.23,-49.7 c 10.53,-2.59 16.96,-13.22 14.38,-23.75 l -27.85,-113.27 c -2.58,-10.53 -13.21,-16.96 -23.74,-14.38"
         style="fill:#9fc6eb;fill-opacity:1;fill-rule:nonzero;stroke:none"
         id="path64" /><path
         d="m 4190.51,3821.11 -165.99,40.8 c -10.53,2.59 -16.96,13.22 -14.37,23.74 l 22.23,90.44 c 2.59,10.53 13.22,16.97 23.74,14.38 l 165.99,-40.8 c 10.53,-2.58 16.96,-13.21 14.37,-23.74 l -22.22,-90.45 c -2.59,-10.52 -13.22,-16.95 -23.75,-14.37"
         style="fill:#afcced;fill-opacity:1;fill-rule:nonzero;stroke:none"
         id="path66" /><path
         d="m 3817.77,2340.59 -934.9,229.79 c -31.22,7.68 -50.32,39.21 -42.64,70.43 l 211.21,859.32 c 7.68,31.22 39.21,50.31 70.43,42.64 l 934.91,-229.8 c 31.22,-7.67 50.31,-39.2 42.63,-70.42 L 3888.2,2383.22 c -7.67,-31.22 -39.21,-50.31 -70.43,-42.63"
         style="fill:#5f85cc;fill-opacity:1;fill-rule:nonzero;stroke:none"
         id="path68" /><path
         d="m 3799,2383.33 -879.69,216.23 c -25.07,6.16 -40.39,31.47 -34.23,56.54 l 199.02,809.7 c 6.16,25.06 31.47,40.39 56.54,34.22 l 879.69,-216.22 c 25.07,-6.16 40.39,-31.47 34.23,-56.54 l -199.01,-809.69 c -6.17,-25.07 -31.48,-40.4 -56.55,-34.24"
         style="fill:#4a71c0;fill-opacity:1;fill-rule:nonzero;stroke:none"
         id="path70" /><path
         d="m 3783.25,2407.29 -838.88,206.19 c -25.06,6.16 -40.39,31.47 -34.22,56.54 l 189.7,771.82 c 6.16,25.06 31.48,40.39 56.54,34.23 l 838.88,-206.19 c 25.06,-6.16 40.39,-31.47 34.23,-56.54 l -189.71,-771.83 c -6.16,-25.05 -31.47,-40.39 -56.54,-34.22"
         style="fill:#d9edf6;fill-opacity:1;fill-rule:nonzero;stroke:none"
         id="path72" /><path
         d="m 3914.54,3112.71 c 0,-63.42 -51.41,-114.83 -114.83,-114.83 -63.42,0 -114.83,51.41 -114.83,114.83 0,63.42 51.41,114.83 114.83,114.83 63.42,0 114.83,-51.41 114.83,-114.83"
         style="fill:#ffffff;fill-opacity:1;fill-rule:nonzero;stroke:none"
         id="path74" /><path
         d="m 3329.92,3119.23 c -95.16,36.83 -363.3,-203.08 -363.3,-203.08 v -0.01 l -57.66,-234.54 c -5.94,-24.18 8.85,-48.6 33.03,-54.54 l 603.53,-148.34 95.13,50.47 -159.14,240.37 c 0,0 -77.21,320.88 -151.59,349.67"
         style="fill:#95b9e5;fill-opacity:1;fill-rule:nonzero;stroke:none"
         id="path76" /><path
         d="m 3690.61,2912.69 c -84.96,-4.15 -413.41,-251.7 -495.85,-360.76 l 593.73,-145.92 c 22.16,-5.46 44.57,8.1 50.02,30.28 l 70.11,285.25 c -48.57,66.43 -151.09,194.41 -218.01,191.15"
         style="fill:#9fc6eb;fill-opacity:1;fill-rule:nonzero;stroke:none"
         id="path78" /><path
         d="m 3054.61,2586.38 c 0,0 305.21,284.44 393.44,305.16 88.21,20.72 223.61,-456.82 223.61,-456.82 l -617.05,151.66"
         style="fill:#adcdee;fill-opacity:1;fill-rule:nonzero;stroke:none"
         id="path80" /><path
         d="m 3170.05,2912.75 c -18.33,13.37 -126.18,-59.35 -234.53,-139.5 l -25.38,-103.23 c -6.16,-25.07 9.17,-50.38 34.23,-56.54 l 299.41,-73.59 v 0 c 0,0 -35.08,344.66 -73.73,372.86"
         style="fill:#bbd6f1;fill-opacity:1;fill-rule:nonzero;stroke:none"
         id="path82" /><path
         d="m 3792.88,2681.14 c -47.17,4.54 -332.7,-194.44 -332.7,-194.44 v 0 l 323.07,-79.41 c 25.07,-6.17 50.38,9.17 56.54,34.22 l 34.46,140.2 c -24.29,51.04 -48.26,96.24 -81.37,99.43"
         style="fill:#bbd6f1;fill-opacity:1;fill-rule:nonzero;stroke:none"
         id="path84" /><path
         d="m 3085.97,3085.24 c 0,-327.48 -265.47,-592.94 -592.95,-592.94 -327.47,0 -592.95,265.46 -592.95,592.94 0,327.47 265.48,592.95 592.95,592.95 327.48,0 592.95,-265.48 592.95,-592.95"
         style="fill:#fbc83c;fill-opacity:1;fill-rule:nonzero;stroke:none"
         id="path86" /><path
         d="m 3078.27,2990.11 -463.04,98.42 459.01,114.44 c -3.65,18.1 -8.18,35.87 -13.43,53.33 l -458.88,-114.41 361.89,303.66 c -11.17,14.57 -22.97,28.62 -35.42,42.07 l -361.82,-303.61 192.04,431.34 c -16.34,8.2 -33.1,15.64 -50.25,22.33 l -187.85,-421.93 v 461.74 c -9.12,0.42 -18.28,0.7 -27.5,0.7 -9.22,0 -18.38,-0.28 -27.49,-0.7 v -472 l -207.01,424.43 c -16.89,-7.29 -33.41,-15.29 -49.45,-24.06 l 207.03,-424.47 -372.17,290.77 c -11.97,-13.87 -23.3,-28.3 -33.95,-43.26 l 372.27,-290.85 -462.67,98.34 c -4.62,-17.62 -8.4,-35.57 -11.41,-53.79 l 462.64,-98.34 -459.4,-114.54 c 3.58,-18.11 8.03,-35.9 13.21,-53.38 l 459.49,114.57 -362.98,-304.58 c 11.12,-14.61 22.88,-28.69 35.28,-42.18 l 363.05,304.63 -192.88,-433.21 c 16.32,-8.23 33.07,-15.71 50.21,-22.43 l 188.74,423.9 v -464.05 c 9.11,-0.42 18.27,-0.69 27.49,-0.69 9.22,0 18.38,0.27 27.5,0.69 v 474.31 l 207.93,-426.32 c 16.88,7.32 33.38,15.35 49.41,24.14 l -207.92,426.29 373.38,-291.71 c 11.92,13.91 23.19,28.38 33.8,43.37 l -373.32,291.67 463.28,-98.47 c 4.56,17.63 8.25,35.61 11.19,53.84"
         style="fill:#fde076;fill-opacity:1;fill-rule:nonzero;stroke:none"
         id="path88" /><path
         d="m 2991.88,3085.24 c 0,-275.51 -223.35,-498.86 -498.86,-498.86 -275.51,0 -498.86,223.35 -498.86,498.86 0,275.51 223.35,498.86 498.86,498.86 275.51,0 498.86,-223.35 498.86,-498.86"
         style="fill:#f68c45;fill-opacity:1;fill-rule:nonzero;stroke:none"
         id="path90" /><path
         d="m 2960.46,3085.24 c 0,-258.16 -209.28,-467.44 -467.44,-467.44 -258.16,0 -467.44,209.28 -467.44,467.44 0,258.16 209.28,467.44 467.44,467.44 258.16,0 467.44,-209.28 467.44,-467.44"
         style="fill:#f9a743;fill-opacity:1;fill-rule:nonzero;stroke:none"
         id="path92" /><path
         d="m 4272.66,1378.09 -19.13,-145.84 -77.31,5.57 11.95,145.05 84.49,-4.78"
         style="fill:#f57962;fill-opacity:1;fill-rule:nonzero;stroke:none"
         id="path94" /><path
         d="m 4367.03,3217.08 c -16.45,24.88 -21.37,57.06 -13.07,85.7 8.3,28.65 29.63,53.23 56.83,65.46 12.67,5.7 27.34,8.76 40.43,4.14 11.82,-4.18 20.79,-14.01 32.17,-19.28 18.86,-8.73 42.42,-4.17 59.98,-15.27 13.58,-8.59 20.39,-24.71 23.97,-40.37 3.6,-15.66 4.83,-32.01 11.01,-46.84 8.12,-19.52 24.06,-34.62 40.27,-48.2 7.4,-6.19 15.04,-12.32 20.47,-20.29 9.15,-13.41 10.86,-31.57 4.39,-46.46 -11.72,-26.92 -11.31,-57.73 -5.73,-86.56 10.4,-53.72 31.17,-104.78 51.81,-155.45 6.11,-15 8.01,-30.21 9.83,-46.3 1.06,-9.21 0.91,-19.8 -5.91,-26.07 -6.42,-5.9 -16.66,-5.85 -23.28,-11.53 -8.32,-7.13 -7.71,-19.83 -10.12,-30.51 -3.57,-15.8 -15.64,-29.4 -30.9,-34.82 -15.26,-5.43 -33.2,-2.49 -45.94,7.52 -16.92,13.29 -22.93,35.79 -28.81,56.49 -15.08,53.19 -35.7,104.62 -56.29,155.93 -16.2,40.41 -24.17,84.43 -36.22,126.26 -7.44,25.86 -15.04,52.08 -29.1,75.03 -14.05,22.95 -39.49,45.72 -65.79,51.42"
         style="fill:#543f68;fill-opacity:1;fill-rule:nonzero;stroke:none"
         id="path96" /><path
         d="m 5025.5,2004.51 146.81,-0.79 -0.3,-77.51 -145.53,2.04 -0.98,76.26"
         style="fill:#f57962;fill-opacity:1;fill-rule:nonzero;stroke:none"
         id="path98" /><path
         d="m 5258.7,1721.24 -20.96,306.91 c 0,0 -26.94,8.55 -54.86,-3.75 -27.92,-12.28 -41.65,-10.02 -37.27,-27.3 4.37,-17.28 22.93,-20 16.01,-35.65 -6.92,-15.65 -13.26,-28.07 -6.83,-40.41 6.44,-12.34 33.14,-26.03 48.25,-78.19 17.02,-58.75 23.57,-85.17 25.88,-94.89 6.72,-28.29 29.78,-26.72 29.78,-26.72"
         style="fill:#3cbfd5;fill-opacity:1;fill-rule:nonzero;stroke:none"
         id="path100" /><path
         d="m 5233.72,1736.14 c 9.26,-15.72 24.98,-14.9 24.98,-14.9 l -20.96,306.91 c 0,0 -10.04,3.13 -24.16,2.84 l 20.14,-294.85"
         style="fill:#9ddee4;fill-opacity:1;fill-rule:nonzero;stroke:none"
         id="path102" /><path
         d="m 4570.72,2599.85 c 0,0 32.33,-76.59 0,-272.56 -25.5,-154.62 0,-325.17 0,-325.17 0,0 384.14,27.1 508.47,7.97 v -97.63 c 0,0 -317.19,-17.14 -420.8,-21.91 -103.6,-4.79 -172.14,-1.6 -192.86,44.63 -20.73,46.22 -44.64,267.78 -44.64,267.78 0,0 -41.44,-121.14 -55.78,-157.8 -14.35,-36.66 -14.35,-33.48 -15.94,-44.63 -1.6,-11.16 11.15,-180.12 -31.88,-412.83 -43.04,-232.72 -39.85,-263.01 -39.85,-263.01 0,0 -71.73,-15.94 -108.39,15.94 0,0 30.29,454.27 44.63,569.04 14.35,114.76 35.07,309.23 52.6,393.7 17.54,84.48 39.58,286.91 38.93,306.04 -0.68,19.13 265.51,-9.56 265.51,-9.56"
         style="fill:#454774;fill-opacity:1;fill-rule:nonzero;stroke:none"
         id="path104" /><path
         d="m 4467.44,3110.46 c 0,0 98.51,-68.29 122.41,-105.35 23.91,-37.06 16.74,-81.89 2.99,-134.49 -13.75,-52.6 -17.33,-188.29 -14.94,-233.72 2.38,-45.42 2.38,-45.42 2.38,-45.42 0,0 1.68,-4.78 -55.34,-13.15 -57.02,-8.37 -101.26,15.54 -133.53,13.15 -32.28,-2.39 -101.62,2.39 -101.62,2.39 0,0 7.17,108.79 0,113.57 -7.17,4.78 -143.45,-10.76 -259.41,15.54 l 9.56,59.77 c 0,0 106.4,-8.37 143.46,-2.39 37.06,5.98 111.17,11.95 111.17,11.95 0,0 -3.58,38.26 -5.98,66.95 -2.39,28.69 1.2,83.68 1.2,83.68 0,0 -92.05,-82.49 -114.76,-90.85 -22.72,-8.37 -170.14,6.68 -170.14,6.68 l 14.67,59.67 c 0,0 87.32,4.18 124.39,7.77 0,0 111.18,115.24 142.25,131.97 31.09,16.74 114.77,52.28 114.77,52.28 h 66.47"
         style="fill:#3cbfd5;fill-opacity:1;fill-rule:nonzero;stroke:none"
         id="path106" /><path
         d="m 4470.52,3172.34 c 0,0 -4.99,-55.46 -4.4,-59.64 0.6,-4.19 14.35,-10.17 13.75,-19.73 -0.6,-9.56 -31.68,-87.27 -63.96,-78.3 -32.28,8.97 -39.45,78.3 -31.68,87.27 7.77,8.96 16.14,15.54 14.34,50.8 -1.78,35.27 71.95,19.6 71.95,19.6"
         style="fill:#e06268;fill-opacity:1;fill-rule:nonzero;stroke:none"
         id="path108" /><path
         d="m 4366.3,3233.04 c 0,0 -1.19,-81.69 45.83,-95.64 47.02,-13.94 76.5,71.73 78.5,77.71 1.99,5.97 5.18,-3.19 13.94,10.76 8.77,13.94 5.99,38.65 -2.38,39.45 -8.37,0.79 -15.15,1.19 -18.33,-10.76 -3.2,-11.96 -3.6,-35.47 -11.57,-31.88 -7.96,3.58 -4.77,39.45 -7.56,41.05 -8.17,4.66 -19.31,0.04 -28.05,3.52 -5.06,2.02 -8.8,6.86 -14.12,8.04 -6.44,1.43 -12.55,-2.9 -18.74,-5.2 -9.65,-3.6 -21.06,-2.08 -29.42,3.94 -3.63,-3.26 -4.76,-8.41 -5.6,-13.22 -1.62,-9.33 -1.59,-18.34 -2.5,-27.77"
         style="fill:#f57962;fill-opacity:1;fill-rule:nonzero;stroke:none"
         id="path110" /><path
         d="m 4479.89,2732.54 c -50.19,-17.93 -200.87,-24.12 -200.87,-24.12 l -0.01,-0.02 c 5.85,-0.04 9.76,-0.28 10.78,-0.96 3.55,-2.37 3.58,-30.22 2.71,-57.75 54.69,15.93 142.28,38.8 187.39,58.73 65.36,28.87 111.15,187.9 111.15,187.9 0,0 -60.96,-145.85 -111.15,-163.78"
         style="fill:#3faed4;fill-opacity:1;fill-rule:nonzero;stroke:none"
         id="path112" /><path
         d="m 4392.21,2824.59 c -14.73,-5.08 -65.3,-5.62 -100.11,-5.35 1.38,-15.26 2.47,-26.93 2.47,-26.93 0,0 78.91,10.55 111.18,10.06 0,0 64.55,61.67 98.03,145.35 0,0 -88.47,-115.16 -111.57,-123.13"
         style="fill:#3faed4;fill-opacity:1;fill-rule:nonzero;stroke:none"
         id="path114" /><path
         d="m 4385.83,2429.3 c 0,0 22.31,-239.09 -20.72,-384.14 14.34,36.66 55.78,157.8 55.78,157.8 0,0 1.6,129.1 -35.06,226.34"
         style="fill:#2c304f;fill-opacity:1;fill-rule:nonzero;stroke:none"
         id="path116" /><path
         d="m 4039.94,2782.75 c 0,0 -29.09,9.56 -32.67,15.54 -3.59,5.98 -11.33,24.05 -11.33,24.05 l -5.33,-21.68 c 0,0 -24.79,4.8 -56.66,16.36 -31.89,11.56 -53,26.27 -59.38,26.49 -6.38,0.21 -10.76,-6.56 -9.56,-10.95 1.19,-4.38 1.19,-4.38 1.19,-4.38 0,0 -24.37,13.62 -30.12,10.39 -5.74,-3.22 -8.13,-8 -4.55,-12.78 3.59,-4.78 68.94,-36.66 72.92,-38.26 3.99,-1.59 -65.75,24.31 -71.73,22.72 -5.97,-1.6 -10.15,-10.36 -2.88,-13.95 7.27,-3.59 70.08,-23.91 70.08,-23.91 0,0 -27.34,6.37 -32.13,4.78 -4.77,-1.59 -6.76,-5.97 -2.78,-11.55 3.98,-5.58 43.04,-22.72 58.57,-24.71 15.54,-1.99 55.8,1.19 61.77,0 5.98,-1.19 46.18,-10.69 46.18,-10.69 l 8.41,52.53"
         style="fill:#f57962;fill-opacity:1;fill-rule:nonzero;stroke:none"
         id="path118" /><path
         d="m 3965.82,1165.3 h 307.64 c 0,0 10.36,26.3 0,54.99 -10.36,28.69 -7.18,42.24 -24.71,39.06 -17.54,-3.2 -21.52,-21.53 -36.66,-13.56 -15.15,7.97 -27.1,15.15 -39.85,9.57 -12.76,-5.58 -28.23,-31.29 -81.29,-42.81 -59.78,-12.98 -86.58,-17.72 -96.44,-19.36 -28.69,-4.78 -28.69,-27.89 -28.69,-27.89"
         style="fill:#3cbfd5;fill-opacity:1;fill-rule:nonzero;stroke:none"
         id="path120" /><path
         d="m 3982.4,1189.21 c -16.32,-8.17 -16.58,-23.91 -16.58,-23.91 h 307.64 c 0,0 3.8,9.81 4.46,23.91 H 3982.4"
         style="fill:#9ddee4;fill-opacity:1;fill-rule:nonzero;stroke:none"
         id="path122" /><path
         d="m 3803.85,3836 -338,83.08 c -20.93,5.14 -33.72,26.28 -28.57,47.2 l 40.76,165.85 c 5.14,20.92 26.28,33.71 47.19,28.57 l 338,-83.08 c 20.93,-5.14 33.72,-26.27 28.59,-47.2 l -40.77,-165.84 c -5.14,-20.93 -26.27,-33.72 -47.2,-28.58"
         style="fill:#27b8cb;fill-opacity:1;fill-rule:nonzero;stroke:none"
         id="path124" /><path
         d="m 3769.77,4065.44 -136.12,35.52 -13.1,3.42 -3.83,-14.65 -32.99,-126.42 c -5.53,5.96 -13.4,10.85 -22.88,13.33 -20.87,5.44 -41.03,-2.57 -45.03,-17.9 -3.99,-15.34 9.68,-32.18 30.55,-37.63 20.87,-5.44 41.02,2.57 45.03,17.9 l 38.42,147.29 136.13,-35.51 -24.38,-93.42 c -5.53,5.97 -13.4,10.86 -22.88,13.33 -20.87,5.45 -41.02,-2.57 -45.03,-17.9 -4,-15.33 9.67,-32.17 30.55,-37.62 20.87,-5.44 41.02,2.57 45.03,17.9 0.37,1.42 0.43,2.86 0.51,4.29 l 0.53,-0.28 28.77,110.28 3.83,14.65 -13.11,3.42"
         style="fill:#ffffff;fill-opacity:1;fill-rule:nonzero;stroke:none"
         id="path126" /><path
         d="m 4942.98,3400.73 -142.14,94.15 142.14,94.15 142.13,-94.15 -142.13,-94.15"
         style="fill:#c9ebfa;fill-opacity:1;fill-rule:nonzero;stroke:none"
         id="path128" /><path
         d="m 4800.84,3344.49 142.14,-94.15 v 150.39 l -142.14,94.15 v -150.39"
         style="fill:#bee1f4;fill-opacity:1;fill-rule:nonzero;stroke:none"
         id="path130" /><path
         d="m 5085.11,3344.49 -142.13,-94.15 v 150.39 l 142.13,94.15 v -150.39"
         style="fill:#a5d3f1;fill-opacity:1;fill-rule:nonzero;stroke:none"
         id="path132" /><path
         d="m 1205.21,3388.14 -172.71,114.4 172.71,114.41 172.71,-114.41 -172.71,-114.4"
         style="fill:#c9ebfa;fill-opacity:1;fill-rule:nonzero;stroke:none"
         id="path134" /><path
         d="m 1032.5,3319.81 172.71,-114.41 v 182.74 l -172.71,114.4 v -182.73"
         style="fill:#bee1f4;fill-opacity:1;fill-rule:nonzero;stroke:none"
         id="path136" /><path
         d="M 1377.92,3319.81 1205.21,3205.4 v 182.74 l 172.71,114.4 v -182.73"
         style="fill:#a5d3f1;fill-opacity:1;fill-rule:nonzero;stroke:none"
         id="path138" /><path
         d="m 2608.19,2952.25 c -7.84,-4.51 -15.92,-8.44 -22.85,-10.31 -33.58,-11.66 -66.92,-13.31 -99.94,-16.86 -5.61,-0.6 -7.82,2.01 -8.3,7.22 -3.47,37.77 -6.96,75.54 -10.57,113.3 -0.46,4.88 -0.18,7.99 6.12,8.55 33.5,2.95 66.91,7.51 100.65,3.12 11.33,-1.47 22.2,-4.24 32.63,-9.12 20.13,-9.4 30.65,-25.22 31.17,-47.12 0.52,-21.96 -10.03,-37.97 -28.91,-48.78 z m -146.05,167.44 c -2.77,33.89 -5.83,67.76 -9.01,101.61 -0.62,6.59 0.52,9.33 8.32,9.86 31.61,2.17 63.25,6.17 94.31,-3.27 39.07,-11.88 52.95,-56.34 26.09,-83.13 -10.44,-10.41 -23.47,-16.76 -34.47,-19.68 -27.19,-9.04 -52.18,-10.6 -77.17,-12.32 -5.28,-0.37 -7.6,1.16 -8.07,6.93 z m 288.57,-77.77 c -6.54,43.3 -31.76,69.4 -73.78,80.09 -4.81,1.22 -10.39,0.19 -14.62,4.72 0.91,1.15 1.61,2.62 2.76,3.43 26.3,18.37 37.06,43.97 37.15,75.57 0.14,48.32 -27.26,85.24 -73.51,98.4 -23.64,6.72 -47.68,9.07 -72.05,8.83 -9.01,-0.08 -13.22,2.17 -13.61,12.3 -0.92,23.86 -3.52,47.65 -4.73,71.51 -0.15,2.87 -0.64,5.06 -1.35,6.93 l -58.23,-4.26 c 0,-0.68 -0.08,-1.22 0,-2 2.55,-24.93 4.21,-49.94 6.73,-74.87 0.7,-6.95 -1.09,-10.34 -8.21,-10.97 -8.96,-0.8 -17.97,-1.62 -26.82,-3.19 -9.51,-1.69 -12.11,1.94 -12.5,11.21 -1,24.25 -3.29,48.44 -4.7,72.67 -0.08,1.49 -0.33,2.68 -0.64,3.77 l -55.68,-4.07 c -0.34,-1.52 -0.46,-3.3 -0.26,-5.49 2.06,-22.6 3.39,-45.26 5.3,-67.88 1.45,-17.16 0.93,-18.07 -15.61,-19.75 -1.56,-0.15 -3.14,-0.19 -4.7,-0.32 -28.07,-2.32 -56.14,-4.69 -84.22,-6.95 -0.53,-0.04 -1.01,-0.1 -1.52,-0.14 l 6.11,-62.86 c 10.27,1.12 20.58,1.98 30.9,2.65 19.42,1.26 30.45,-7.19 33.38,-26.63 1.98,-13.15 2.5,-26.52 3.7,-39.8 6.45,-71.4 12.97,-142.8 19.33,-214.22 1.39,-15.64 -5.11,-23.3 -20.85,-25.08 -8.55,-0.96 -17.13,-1.82 -25.72,-2.31 -0.92,-13.55 -3.02,-43.82 -5.17,-71.12 30.14,2.49 60.46,2.88 90.5,6.75 8.62,1.11 11.23,-1.84 11.65,-10.73 1.19,-25.26 3.74,-50.46 5.54,-75.7 l 59.57,3.35 c -0.03,0.41 0.04,0.66 0,1.1 -2.45,23.75 -3.57,47.64 -5.69,71.44 -0.79,8.82 0.85,14.16 11.17,14.26 7.79,0.08 15.65,1.07 23.32,2.49 9.05,1.66 12.58,-1.19 13.05,-10.65 1.24,-24.62 3.52,-49.19 5.08,-73.81 0.05,-0.83 0.23,-1.43 0.32,-2.17 l 60.05,3.38 c -0.01,0.08 0.01,0.1 0,0.18 -2.17,24.53 -2.76,49.2 -4.93,73.73 -0.98,10.92 2.8,15.2 13.37,16.77 24.88,3.71 49.13,10.28 72.38,19.92 34.73,14.41 62.42,36.45 73.84,73.9 7.54,24.7 7.74,50.16 3.9,75.62"
         style="fill:#feefc2;fill-opacity:1;fill-rule:nonzero;stroke:none"
         id="path140" /><path
         d="m 2967.67,4008.38 c 37.06,-118.46 -28.94,-244.54 -147.41,-281.6 -118.46,-37.06 -244.54,28.94 -281.6,147.41 -37.05,118.47 28.94,244.54 147.41,281.6 118.47,37.06 244.54,-28.94 281.6,-147.41"
         style="fill:#5f85cc;fill-opacity:1;fill-rule:nonzero;stroke:none"
         id="path142" /><path
         d="m 2932.75,3997.46 c 31.02,-99.18 -24.23,-204.73 -123.41,-235.76 -99.18,-31.02 -204.73,24.23 -235.76,123.41 -31.02,99.18 24.23,204.73 123.41,235.76 99.19,31.02 204.73,-24.23 235.76,-123.41"
         style="fill:#90b3e3;fill-opacity:1;fill-rule:nonzero;stroke:none"
         id="path144" /><path
         d="m 2908.64,3989.92 c 26.86,-85.87 -20.98,-177.24 -106.84,-204.1 -85.87,-26.86 -177.24,20.97 -204.1,106.84 -26.86,85.86 20.97,177.24 106.84,204.1 85.86,26.85 177.24,-20.98 204.1,-106.84"
         style="fill:#afcced;fill-opacity:1;fill-rule:nonzero;stroke:none"
         id="path146" /><path
         d="m 2771.72,3874.21 c -3.48,-0.94 -6.98,-1.63 -9.82,-1.62 -14.04,-1 -26.83,1.97 -39.73,4.14 -2.19,0.37 -2.73,1.65 -2.31,3.78 3.01,15.42 6.01,30.85 8.97,46.28 0.38,2 0.85,3.21 3.29,2.74 13.01,-2.46 26.17,-4.28 38.43,-9.69 4.12,-1.82 7.91,-4.11 11.3,-7.18 6.53,-5.94 8.7,-13.38 6.39,-22.16 -2.32,-8.81 -8.14,-14.04 -16.52,-16.29 z m -36.07,82.58 c 2.84,13.8 5.55,27.62 8.23,41.45 0.52,2.69 1.26,3.66 4.27,3.03 12.2,-2.57 24.63,-4.42 35.3,-11.56 13.41,-8.98 13.57,-28.2 0.34,-35.95 -5.13,-3.01 -10.79,-4.12 -15.28,-4.09 -11.32,-0.65 -20.95,1.45 -30.6,3.47 -2.04,0.43 -2.74,1.29 -2.26,3.65 z m 100.24,-62.35 c 2.48,17.96 -4.06,31.1 -18.74,39.93 -1.68,1.01 -3.9,1.2 -4.98,3.46 0.47,0.36 0.9,0.87 1.43,1.07 12.05,4.46 19.05,13.49 22.7,26.07 5.58,19.23 -0.55,36.92 -16.53,47.18 -8.18,5.25 -17,8.8 -26.24,11.36 -3.42,0.94 -4.76,2.29 -3.74,6.37 2.38,9.61 4.12,19.37 6.39,29 0.27,1.16 0.34,2.09 0.28,2.91 l -22.51,4.63 c -0.07,-0.27 -0.17,-0.47 -0.22,-0.79 -1.89,-10.21 -4.13,-20.36 -6.03,-30.56 -0.53,-2.84 -1.59,-4 -4.36,-3.48 -3.48,0.66 -6.98,1.31 -10.51,1.64 -3.79,0.36 -4.36,2.09 -3.44,5.83 2.4,9.77 4.3,19.65 6.54,29.46 0.14,0.61 0.18,1.11 0.19,1.57 l -21.53,4.43 c -0.3,-0.57 -0.55,-1.26 -0.72,-2.16 -1.81,-9.22 -3.9,-18.4 -5.77,-27.61 -1.42,-7 -1.72,-7.3 -8.16,-6.18 -0.61,0.11 -1.21,0.27 -1.82,0.39 -10.88,2.13 -21.77,4.23 -32.65,6.38 -0.2,0.05 -0.39,0.07 -0.59,0.11 l -4.88,-25.7 c 4.01,-0.67 8.01,-1.45 11.99,-2.3 7.49,-1.61 10.69,-6.18 9.57,-14.24 -0.75,-5.46 -2.09,-10.84 -3.15,-16.26 -5.73,-29.15 -11.44,-58.3 -17.21,-87.44 -1.27,-6.38 -4.6,-8.72 -10.77,-7.72 -3.34,0.54 -6.68,1.13 -9.98,1.88 -1.91,-5.31 -6.16,-17.13 -10.1,-27.78 11.69,-2.29 23.19,-5.42 35,-7.14 3.39,-0.5 4.03,-1.96 3.18,-5.54 -2.45,-10.2 -4.37,-20.51 -6.57,-30.76 l 22.91,-5.14 c 0.04,0.16 0.09,0.26 0.12,0.43 1.8,9.74 4.11,19.37 6.03,29.08 0.71,3.6 1.94,5.55 5.85,4.47 2.96,-0.82 6.05,-1.28 9.12,-1.54 3.6,-0.32 4.61,-1.84 3.71,-5.66 -2.35,-9.95 -4.3,-19.98 -6.53,-29.96 -0.07,-0.34 -0.07,-0.59 -0.12,-0.9 l 23.09,-5.18 c 0.01,0.03 0.02,0.04 0.02,0.08 1.99,10 4.59,19.89 6.58,29.9 0.88,4.46 2.8,5.75 6.98,5.23 9.83,-1.23 19.75,-1.25 29.65,0.07 14.78,1.96 27.78,7.73 36.39,21.41 5.68,9.02 8.67,19.14 10.13,29.7"
         style="fill:#ffffff;fill-opacity:1;fill-rule:nonzero;stroke:none"
         id="path148" /><path
         d="m 1820.58,1376.89 -9.96,-135.68 75.31,-7.77 4,23 9.55,111.49 -78.9,8.96"
         style="fill:#f57962;fill-opacity:1;fill-rule:nonzero;stroke:none"
         id="path150" /><path
         d="m 2300.55,1394.03 53,-134.19 64.95,33.77 -46.22,142.66 -71.73,-42.24"
         style="fill:#f57962;fill-opacity:1;fill-rule:nonzero;stroke:none"
         id="path152" /><path
         d="m 1665.09,3313.55 c 0,0 16.81,29.87 6.05,63.34 -10.75,33.48 -38.25,34.67 -54.39,43.04 -16.14,8.37 -62.76,16.14 -83.68,-4.18 -20.92,-20.33 -29.89,-35.27 -38.26,-40.05 -8.36,-4.79 -15.54,-26.9 -8.96,-48.42 6.57,-21.52 23.91,-26.3 26.3,-43.63 2.39,-17.34 14.94,-31.68 31.08,-38.25 16.14,-6.58 38.25,1.79 39.45,4.78 1.2,2.98 82.41,63.37 82.41,63.37"
         style="fill:#543f68;fill-opacity:1;fill-rule:nonzero;stroke:none"
         id="path154" /><path
         d="m 1716.14,2675.53 c 0,0 11.19,-110.35 58.11,-203.6 46.93,-93.24 92.35,-224.74 94.74,-241.48 2.39,-16.74 -14.34,-196.06 -5.97,-350.26 8.36,-154.22 -35.87,-474.6 -57.39,-518.83 0,0 54.99,-32.29 107.59,-16.74 0,0 50.21,340.7 72.93,462.64 22.71,121.94 35.86,453.08 35.86,453.08 0,0 33.47,-62.17 49.02,-113.57 15.54,-51.41 65.74,-302.45 136.27,-493.72 70.54,-191.27 80.1,-271.37 80.1,-271.37 0,0 80.09,13.14 108.79,37.06 0,0 -103.21,261.41 -187.69,637.57 0,0 -44.63,242.28 -66.94,298.07 -22.32,55.79 -196.06,435.15 -210.4,449.49 -14.35,14.35 -215.02,-128.34 -215.02,-128.34"
         style="fill:#454774;fill-opacity:1;fill-rule:nonzero;stroke:none"
         id="path156" /><path
         d="m 1588.66,3189.21 c 0,0 -58.58,-58.58 -73.52,-98.03 -14.94,-39.45 33.47,-113.57 50.21,-153.62 16.73,-40.05 41.84,-99.22 86.07,-96.83 0,0 36.46,-90.26 33.47,-126.72 -2.99,-36.46 -2.99,-44.83 -2.99,-44.83 0,0 148.24,24.51 188.29,54.99 40.04,30.49 83.08,83.09 83.08,83.09 0,0 -18.53,8.97 -24.51,19.13 -5.97,10.16 -31.68,71.72 -31.68,71.72 0,0 113.57,36.47 151.23,57.98 37.66,21.52 45.43,25.7 45.43,25.7 l -20.92,44.84 c 0,0 -115.96,-41.25 -200.84,-61.57 l -35.86,91.45 c 0,0 42.43,-22.12 51.4,-23.91 8.97,-1.79 16.14,-1.79 16.14,-1.79 0,0 -5.38,71.72 -1.79,92.05 0,0 -57.22,26.3 -98.84,57.38 -41.63,31.08 -43.42,32.28 -53.58,34.07 -10.16,1.79 -99.83,-9.56 -99.83,-9.56 l -60.96,-15.54"
         style="fill:#f2566a;fill-opacity:1;fill-rule:nonzero;stroke:none"
         id="path158" /><path
         d="m 1660.09,3209.6 c 0,0 -13.45,27.72 -13.75,52.23 l -65.86,-16.85 c 0,0 11.77,-40.83 8.18,-55.77 -3.59,-14.95 63.36,-19.43 74.42,-10.16 11.06,9.26 -2.99,30.55 -2.99,30.55"
         style="fill:#e06268;fill-opacity:1;fill-rule:nonzero;stroke:none"
         id="path160" /><path
         d="m 1664.57,3322.7 c 0,0 9.17,-100.42 -39.45,-98.03 -48.62,2.4 -73.32,60.57 -73.32,60.57 -6.71,-3.1 -15.22,0.46 -20.57,5.56 -5.36,5.1 -8.25,12.25 -10.24,19.37 -1.2,4.3 -1.82,9.67 1.59,12.54 2.16,1.81 5.35,1.93 8.03,1.02 2.66,-0.91 4.93,-2.69 7.14,-4.43 3.5,-2.77 6.99,-5.54 10.49,-8.31 1.37,-1.08 3.01,-2.24 4.72,-1.86 2.18,0.48 3.06,3.06 3.46,5.25 2.01,10.91 1.6,22.26 -1.17,33 18.68,0.48 38.18,0.52 53.85,10.7 4.22,-4.91 10.99,-7 17.47,-6.96 6.46,0.03 12.77,1.92 18.96,3.79 2.63,-8.47 5.89,-16.75 9.74,-24.74 1.77,-3.68 5.34,-8.44 9.3,-7.47"
         style="fill:#f57962;fill-opacity:1;fill-rule:nonzero;stroke:none"
         id="path162" /><path
         d="m 1674.5,2773.94 c 78.03,44 188.58,99.72 225.17,118.01 -1.6,3.81 -2.59,6.16 -2.59,6.16 0,0 -157.99,-53.19 -245.66,-57.38 0,0 13.21,-32.77 23.08,-66.79"
         style="fill:#f14a69;fill-opacity:1;fill-rule:nonzero;stroke:none"
         id="path164" /><path
         d="m 1696.05,2949.72 c -34.27,71.73 -78.9,117.95 -78.9,117.95 30.29,-43.04 71.75,-139.68 71.75,-139.68 88.46,8.77 183.08,37.07 183.08,37.07 l -175.93,-15.34"
         style="fill:#f14a69;fill-opacity:1;fill-rule:nonzero;stroke:none"
         id="path166" /><path
         d="m 2074.6,3023.35 c 0,0 20.03,7.16 27.21,18.82 7.17,11.65 18.82,17.03 21.52,15.24 2.69,-1.79 -0.6,-11.06 2.09,-9.87 2.69,1.2 48.12,34.08 56.18,36.77 8.07,2.69 11.66,-0.9 8.97,-4.78 -2.69,-3.89 -42.14,-30.49 -42.14,-30.49 0,0 51.11,27.79 56.78,29.29 5.68,1.49 7.48,-4.79 7.48,-7.18 0,-2.39 -58.58,-34.96 -58.58,-34.96 0,0 39.15,16.13 42.74,15.24 3.58,-0.9 5.38,-3.58 2.39,-8.07 -2.99,-4.48 -42.44,-21.22 -42.44,-21.22 0,0 18.53,4.18 20.32,2.69 1.8,-1.5 0,-7.17 -4.78,-9.56 -4.78,-2.39 -13.45,-8.67 -33.47,-10.46 -20.03,-1.8 -50.68,-10.56 -50.68,-10.56 l -13.59,29.1"
         style="fill:#f57962;fill-opacity:1;fill-rule:nonzero;stroke:none"
         id="path168" /><path
         d="m 2043.97,2215.74 c 11.23,49.84 26.38,150.24 -18.39,200.97 -60.99,69.11 -113.55,240.52 -113.55,240.52 22.71,-137.48 108.65,-287.79 113.43,-308.12 4.78,-20.32 -3.45,-88.77 -3.45,-88.77 0,0 10.21,-18.98 21.96,-44.6"
         style="fill:#2c304f;fill-opacity:1;fill-rule:nonzero;stroke:none"
         id="path170" /><path
         d="m 1802.95,1165.3 h 281.34 c 0,0 6.65,10.75 -20.84,23.91 -27.5,13.14 -70.02,11.95 -141.75,43.04 0,0 -11.15,3.18 -21.51,17.53 -10.37,14.34 -25.51,2.39 -30.29,0 -4.78,-2.4 -18.33,-7.97 -33.47,0.8 -15.15,8.77 -27.89,5.57 -33.48,-2.4 -5.57,-7.97 -6.37,-26.3 -4.78,-31.08 1.6,-4.78 6.38,-40.64 4.78,-51.8"
         style="fill:#5bb2d6;fill-opacity:1;fill-rule:nonzero;stroke:none"
         id="path172" /><path
         d="m 1802.95,1165.3 h 281.34 c 0,0 5.78,9.91 -17.92,22.32 h -264.03 c 0.83,-9.04 1.27,-17.76 0.61,-22.32"
         style="fill:#4b8eaf;fill-opacity:1;fill-rule:nonzero;stroke:none"
         id="path174" /><path
         d="m 2347.67,1205.03 273.01,67.92 c 0,0 3.86,12.04 -26,18.16 -29.86,6.13 -70.83,-5.3 -147.94,7.55 0,0 -11.59,0.4 -25.11,11.82 -13.52,11.42 -25.33,-3.83 -29.39,-7.31 -4.07,-3.47 -15.87,-12.15 -32.68,-7.31 -16.81,4.85 -28.41,-1.32 -31.9,-10.4 -3.5,-9.08 0.16,-27.06 2.86,-31.31 2.7,-4.26 16,-37.91 17.15,-49.12"
         style="fill:#5bb2d6;fill-opacity:1;fill-rule:nonzero;stroke:none"
         id="path176" /><path
         d="m 2347.67,1205.03 273,67.92 c 0,0 3.23,11.01 -22.77,17.32 l -256.22,-63.74 c 2.99,-8.55 5.52,-16.91 5.99,-21.5"
         style="fill:#4b8eaf;fill-opacity:1;fill-rule:nonzero;stroke:none"
         id="path178" /><path
         d="m 2168.5,3873.25 c 0,-163.76 -132.75,-296.52 -296.52,-296.52 -163.76,0 -296.52,132.76 -296.52,296.52 0,163.77 132.76,296.52 296.52,296.52 163.77,0 296.52,-132.75 296.52,-296.52"
         style="fill:#27b8cb;fill-opacity:1;fill-rule:nonzero;stroke:none"
         id="path180" /><path
         d="m 2120.22,3873.25 c 0,-137.1 -111.14,-248.24 -248.24,-248.24 -137.1,0 -248.24,111.14 -248.24,248.24 0,137.11 111.14,248.25 248.24,248.25 137.1,0 248.24,-111.14 248.24,-248.25"
         style="fill:#20b5c9;fill-opacity:1;fill-rule:nonzero;stroke:none"
         id="path182" /><path
         d="m 2091.83,3873.25 c 0,-121.41 -98.43,-219.85 -219.85,-219.85 -121.42,0 -219.85,98.44 -219.85,219.85 0,121.42 98.43,219.85 219.85,219.85 121.42,0 219.85,-98.43 219.85,-219.85"
         style="fill:#e0f2fc;fill-opacity:1;fill-rule:nonzero;stroke:none"
         id="path184" /><path
         d="m 1871.75,4080.91 v -300.24 l 129.31,88.98 z"
         style="fill:#1fb5ce;fill-opacity:1;fill-rule:nonzero;stroke:none"
         id="path186" /><path
         d="m 1871.75,3919.64 v -138.97 l 129.31,88.98 z"
         style="fill:#1ab4d8;fill-opacity:1;fill-rule:nonzero;stroke:none"
         id="path188" /><path
         d="m 1871.75,4080.91 v -300.24 l -129.31,88.98 z"
         style="fill:#27b8cb;fill-opacity:1;fill-rule:nonzero;stroke:none"
         id="path190" /><path
         d="m 1871.75,3919.64 v -138.97 l -129.31,88.98 z"
         style="fill:#1fb5ce;fill-opacity:1;fill-rule:nonzero;stroke:none"
         id="path192" /><path
         d="m 1871.75,3665.6 134.19,183.79 -134.19,-95.36 z"
         style="fill:#1fb5ce;fill-opacity:1;fill-rule:nonzero;stroke:none"
         id="path194" /><path
         d="m 1872.21,3665.6 -134.19,183.79 134.19,-95.36 z"
         style="fill:#27b8cb;fill-opacity:1;fill-rule:nonzero;stroke:none"
         id="path196" /><path
         d="m 3537.24,1521.15 h -613.83 c -16.02,0 -29.01,12.99 -29.01,29.02 v 613.81 c 0,16.03 12.99,29.02 29.01,29.02 h 613.83 c 16.01,0 29.01,-12.99 29.01,-29.02 v -613.81 c 0,-16.03 -13,-29.02 -29.01,-29.02"
         style="fill:#5f85cc;fill-opacity:1;fill-rule:nonzero;stroke:none"
         id="path198" /><path
         d="m 3501.72,1585.67 h -542.79 v 542.8 h 542.79 v -542.8"
         style="fill:#f68c45;fill-opacity:1;fill-rule:nonzero;stroke:none"
         id="path200" /><path
         d="m 3465.22,1622.17 h -469.8 v 469.8 h 469.8 v -469.8"
         style="fill:#f9a743;fill-opacity:1;fill-rule:nonzero;stroke:none"
         id="path202" /><path
         d="m 3000.8,2323.3 v 0 c -10.35,0 -18.73,-8.39 -18.73,-18.73 V 2193 h 37.45 v 111.57 c 0,10.34 -8.38,18.73 -18.72,18.73"
         style="fill:#4969a5;fill-opacity:1;fill-rule:nonzero;stroke:none"
         id="path204" /><path
         d="m 3115.56,2323.3 v 0 c -10.35,0 -18.73,-8.39 -18.73,-18.73 V 2193 h 37.46 v 111.57 c 0,10.34 -8.39,18.73 -18.73,18.73"
         style="fill:#4969a5;fill-opacity:1;fill-rule:nonzero;stroke:none"
         id="path206" /><path
         d="m 3230.32,2323.3 v 0 c -10.34,0 -18.73,-8.39 -18.73,-18.73 V 2193 h 37.46 v 111.57 c 0,10.34 -8.38,18.73 -18.73,18.73"
         style="fill:#4969a5;fill-opacity:1;fill-rule:nonzero;stroke:none"
         id="path208" /><path
         d="m 3345.09,2323.3 v 0 c -10.34,0 -18.73,-8.39 -18.73,-18.73 V 2193 h 37.46 v 111.57 c 0,10.34 -8.39,18.73 -18.73,18.73"
         style="fill:#4969a5;fill-opacity:1;fill-rule:nonzero;stroke:none"
         id="path210" /><path
         d="m 3459.85,2323.3 v 0 c -10.35,0 -18.73,-8.39 -18.73,-18.73 V 2193 h 37.46 v 111.57 c 0,10.34 -8.38,18.73 -18.73,18.73"
         style="fill:#4969a5;fill-opacity:1;fill-rule:nonzero;stroke:none"
         id="path212" /><path
         d="m 3459.85,1390.84 v 0 c 10.35,0 18.73,8.39 18.73,18.73 v 111.58 h -37.46 v -111.58 c 0,-10.34 8.38,-18.73 18.73,-18.73"
         style="fill:#4969a5;fill-opacity:1;fill-rule:nonzero;stroke:none"
         id="path214" /><path
         d="m 3345.09,1390.84 v 0 c 10.34,0 18.73,8.39 18.73,18.73 v 111.58 h -37.46 v -111.58 c 0,-10.34 8.39,-18.73 18.73,-18.73"
         style="fill:#4969a5;fill-opacity:1;fill-rule:nonzero;stroke:none"
         id="path216" /><path
         d="m 3230.32,1390.84 v 0 c 10.35,0 18.73,8.39 18.73,18.73 v 111.58 h -37.46 v -111.58 c 0,-10.34 8.39,-18.73 18.73,-18.73"
         style="fill:#4969a5;fill-opacity:1;fill-rule:nonzero;stroke:none"
         id="path218" /><path
         d="m 3115.56,1390.84 v 0 c 10.34,0 18.73,8.39 18.73,18.73 v 111.58 h -37.46 v -111.58 c 0,-10.34 8.38,-18.73 18.73,-18.73"
         style="fill:#4969a5;fill-opacity:1;fill-rule:nonzero;stroke:none"
         id="path220" /><path
         d="m 3000.8,1390.84 v 0 c 10.34,0 18.72,8.39 18.72,18.73 v 111.58 h -37.45 v -111.58 c 0,-10.34 8.38,-18.73 18.73,-18.73"
         style="fill:#4969a5;fill-opacity:1;fill-rule:nonzero;stroke:none"
         id="path222" /><path
         d="m 3696.55,2086.6 v 0 c 0,10.34 -8.39,18.72 -18.73,18.72 h -111.57 v -37.45 h 111.57 c 10.34,0 18.73,8.38 18.73,18.73"
         style="fill:#4969a5;fill-opacity:1;fill-rule:nonzero;stroke:none"
         id="path224" /><path
         d="m 3696.55,1971.84 v 0 c 0,10.34 -8.39,18.73 -18.73,18.73 h -111.57 v -37.46 h 111.57 c 10.34,0 18.73,8.38 18.73,18.73"
         style="fill:#4969a5;fill-opacity:1;fill-rule:nonzero;stroke:none"
         id="path226" /><path
         d="m 3696.55,1857.07 v 0 c 0,10.34 -8.39,18.73 -18.73,18.73 h -111.57 v -37.46 h 111.57 c 10.34,0 18.73,8.39 18.73,18.73"
         style="fill:#4969a5;fill-opacity:1;fill-rule:nonzero;stroke:none"
         id="path228" /><path
         d="m 3696.55,1742.3 v 0 c 0,10.35 -8.39,18.74 -18.73,18.74 h -111.57 v -37.47 h 111.57 c 10.34,0 18.73,8.39 18.73,18.73"
         style="fill:#4969a5;fill-opacity:1;fill-rule:nonzero;stroke:none"
         id="path230" /><path
         d="m 3696.55,1627.54 v 0 c 0,10.35 -8.39,18.73 -18.73,18.73 h -111.57 v -37.45 h 111.57 c 10.34,0 18.73,8.38 18.73,18.72"
         style="fill:#4969a5;fill-opacity:1;fill-rule:nonzero;stroke:none"
         id="path232" /><path
         d="m 2764.1,1627.54 v 0 c 0,-10.34 8.38,-18.72 18.72,-18.72 h 111.58 v 37.45 h -111.58 c -10.34,0 -18.72,-8.38 -18.72,-18.73"
         style="fill:#4969a5;fill-opacity:1;fill-rule:nonzero;stroke:none"
         id="path234" /><path
         d="m 2764.1,1742.3 v 0 c 0,-10.34 8.38,-18.73 18.72,-18.73 h 111.58 v 37.47 h -111.58 c -10.34,0 -18.72,-8.39 -18.72,-18.74"
         style="fill:#4969a5;fill-opacity:1;fill-rule:nonzero;stroke:none"
         id="path236" /><path
         d="m 2764.1,1857.07 v 0 c 0,-10.34 8.38,-18.73 18.72,-18.73 h 111.58 v 37.46 h -111.58 c -10.34,0 -18.72,-8.39 -18.72,-18.73"
         style="fill:#4969a5;fill-opacity:1;fill-rule:nonzero;stroke:none"
         id="path238" /><path
         d="m 2764.1,1971.84 v 0 c 0,-10.35 8.38,-18.73 18.72,-18.73 h 111.58 v 37.46 h -111.58 c -10.34,0 -18.72,-8.39 -18.72,-18.73"
         style="fill:#4969a5;fill-opacity:1;fill-rule:nonzero;stroke:none"
         id="path240" /><path
         d="m 2764.1,2086.6 v 0 c 0,-10.35 8.38,-18.73 18.72,-18.73 h 111.58 v 37.45 h -111.58 c -10.34,0 -18.72,-8.38 -18.72,-18.72"
         style="fill:#4969a5;fill-opacity:1;fill-rule:nonzero;stroke:none"
         id="path242" /><path
         d="m 3363.82,2219.99 h -37.46 V 2193 h 37.46 v 26.99"
         style="fill:#314974;fill-opacity:1;fill-rule:nonzero;stroke:none"
         id="path244" /><path
         d="m 3249.05,2219.99 h -37.46 V 2193 h 37.46 v 26.99"
         style="fill:#314974;fill-opacity:1;fill-rule:nonzero;stroke:none"
         id="path246" /><path
         d="m 3019.52,2219.99 h -37.45 V 2193 h 37.45 v 26.99"
         style="fill:#314974;fill-opacity:1;fill-rule:nonzero;stroke:none"
         id="path248" /><path
         d="m 3134.29,2219.99 h -37.46 V 2193 h 37.46 v 26.99"
         style="fill:#314974;fill-opacity:1;fill-rule:nonzero;stroke:none"
         id="path250" /><path
         d="m 3566.25,2067.87 h 26.98 v 37.45 h -26.98 v -37.45"
         style="fill:#314974;fill-opacity:1;fill-rule:nonzero;stroke:none"
         id="path252" /><path
         d="m 3593.23,1646.27 h -26.98 v -37.45 h 26.98 v 37.45"
         style="fill:#314974;fill-opacity:1;fill-rule:nonzero;stroke:none"
         id="path254" /><path
         d="m 3566.25,1990.57 v -37.46 h 26.98 v 37.46 h -26.98"
         style="fill:#314974;fill-opacity:1;fill-rule:nonzero;stroke:none"
         id="path256" /><path
         d="m 3566.25,1838.34 h 26.98 v 37.46 h -26.98 v -37.46"
         style="fill:#314974;fill-opacity:1;fill-rule:nonzero;stroke:none"
         id="path258" /><path
         d="m 3566.25,1723.58 h 26.98 v 37.46 h -26.98 v -37.46"
         style="fill:#314974;fill-opacity:1;fill-rule:nonzero;stroke:none"
         id="path260" /><path
         d="m 3019.52,1494.16 v 26.99 h -37.45 v -26.99 h 37.45"
         style="fill:#314974;fill-opacity:1;fill-rule:nonzero;stroke:none"
         id="path262" /><path
         d="m 2894.4,1875.8 h -26.99 v -37.46 h 26.99 v 37.46"
         style="fill:#314974;fill-opacity:1;fill-rule:nonzero;stroke:none"
         id="path264" /><path
         d="m 2894.4,1990.57 h -26.99 v -37.46 h 26.99 v 37.46"
         style="fill:#314974;fill-opacity:1;fill-rule:nonzero;stroke:none"
         id="path266" /><path
         d="m 2867.41,2067.87 h 26.99 v 37.45 h -26.99 v -37.45"
         style="fill:#314974;fill-opacity:1;fill-rule:nonzero;stroke:none"
         id="path268" /><path
         d="m 2894.4,1761.04 h -26.99 v -37.46 h 26.99 v 37.46"
         style="fill:#314974;fill-opacity:1;fill-rule:nonzero;stroke:none"
         id="path270" /><path
         d="m 2894.4,1646.27 h -26.99 v -37.45 h 26.99 v 37.45"
         style="fill:#314974;fill-opacity:1;fill-rule:nonzero;stroke:none"
         id="path272" /><path
         d="M 3441.12,2219.99 V 2193 h 37.46 v 26.99 h -37.46"
         style="fill:#314974;fill-opacity:1;fill-rule:nonzero;stroke:none"
         id="path274" /><path
         d="m 3249.05,1521.15 h -37.46 v -26.99 h 37.46 v 26.99"
         style="fill:#314974;fill-opacity:1;fill-rule:nonzero;stroke:none"
         id="path276" /><path
         d="m 3363.82,1521.15 h -37.46 v -26.99 h 37.46 v 26.99"
         style="fill:#314974;fill-opacity:1;fill-rule:nonzero;stroke:none"
         id="path278" /><path
         d="m 3134.29,1521.15 h -37.46 v -26.99 h 37.46 v 26.99"
         style="fill:#314974;fill-opacity:1;fill-rule:nonzero;stroke:none"
         id="path280" /><path
         d="m 3478.58,1521.15 h -37.46 v -26.99 h 37.46 v 26.99"
         style="fill:#314974;fill-opacity:1;fill-rule:nonzero;stroke:none"
         id="path282" /><path
         d="m 4068.74,2166.48 h -156.21 c -1.2,0 -2.34,-0.57 -3.05,-1.53 l -83.34,-113.21 h -108.07 c -2.08,0 -3.78,-1.7 -3.78,-3.79 0,-2.08 1.7,-3.78 3.78,-3.78 h 109.98 117.16 c 2.08,0 3.78,1.7 3.78,3.78 0,2.09 -1.7,3.79 -3.78,3.79 h -109.67 l 78.89,107.18 h 154.31 c 2.09,0 3.79,1.7 3.79,3.79 0,2.08 -1.7,3.77 -3.79,3.77"
         style="fill:#5f85cc;fill-opacity:1;fill-rule:nonzero;stroke:none"
         id="path284" /><path
         d="m 4005.78,1924.61 c 2.08,0 3.78,1.7 3.78,3.79 0,2.08 -1.7,3.78 -3.78,3.78 h -287.71 c -2.08,0 -3.78,-1.7 -3.78,-3.78 0,-2.09 1.7,-3.79 3.78,-3.79 h 287.71"
         style="fill:#5f85cc;fill-opacity:1;fill-rule:nonzero;stroke:none"
         id="path286" /><path
         d="m 4032.87,1737.72 h -138.91 l -43.51,73.85 c -0.68,1.15 -1.92,1.87 -3.27,1.87 h -143.45 c -2.09,0 -3.79,-1.7 -3.79,-3.79 0,-2.08 1.7,-3.79 3.79,-3.79 h 141.29 l 43.52,-73.85 c 0.68,-1.15 1.92,-1.86 3.27,-1.86 h 141.06 c 2.08,0 3.78,1.71 3.78,3.79 0,2.09 -1.7,3.78 -3.78,3.78"
         style="fill:#5f85cc;fill-opacity:1;fill-rule:nonzero;stroke:none"
         id="path288" /><path
         d="m 3961.94,1640.5 h -211.99 c -2.08,0 -3.79,-1.71 -3.79,-3.79 0,-2.09 1.71,-3.79 3.79,-3.79 h 211.99 c 2.09,0 3.79,1.7 3.79,3.79 0,2.08 -1.7,3.79 -3.79,3.79"
         style="fill:#5f85cc;fill-opacity:1;fill-rule:nonzero;stroke:none"
         id="path290" /><path
         d="m 2730.61,2035.69 c 1.05,0 1.9,0.84 1.9,1.9 0,1.04 -0.85,1.89 -1.9,1.89 h -147.13 l -37.71,66.78 c -0.33,0.59 -0.96,0.96 -1.64,0.96 h -66.94 c -1.05,0 -1.9,-0.84 -1.9,-1.9 0,-1.04 0.85,-1.88 1.9,-1.88 h 65.83 l 36.13,-63.96 h -168.27 l -38.94,29.92 c -0.83,0.63 -2.01,0.49 -2.66,-0.35 -0.64,-0.83 -0.47,-2.01 0.35,-2.64 l 39.46,-30.34 c 0.32,-0.24 0.74,-0.38 1.15,-0.38 h 320.37"
         style="fill:#5f85cc;fill-opacity:1;fill-rule:nonzero;stroke:none"
         id="path292" /><path
         d="m 2730.61,1904.39 h -237.49 c -1.04,0 -1.88,-0.84 -1.88,-1.89 0,-1.04 0.84,-1.89 1.88,-1.89 h 237.49 c 1.05,0 1.9,0.85 1.9,1.89 0,1.05 -0.85,1.89 -1.9,1.89"
         style="fill:#5f85cc;fill-opacity:1;fill-rule:nonzero;stroke:none"
         id="path294" /><path
         d="M 2730.61,1759.35 H 2552.7 c -1.04,0 -1.89,-0.85 -1.89,-1.9 v -71.02 h -102.52 c -1.05,0 -1.89,-0.84 -1.89,-1.9 0,-1.04 0.84,-1.89 1.89,-1.89 h 104.41 c 1.05,0 1.9,0.85 1.9,1.89 v 71.03 h 176.01 c 1.05,0 1.9,0.84 1.9,1.89 0,1.05 -0.85,1.9 -1.9,1.9"
         style="fill:#5f85cc;fill-opacity:1;fill-rule:nonzero;stroke:none"
         id="path296" /><path
         d="m 2713.89,1587.57 h -179.12 c -1.05,0 -1.89,-0.84 -1.89,-1.9 0,-1.04 0.84,-1.89 1.89,-1.89 h 179.12 c 1.05,0 1.89,0.85 1.89,1.89 0,1.06 -0.84,1.9 -1.89,1.9"
         style="fill:#5f85cc;fill-opacity:1;fill-rule:nonzero;stroke:none"
         id="path298" /><path
         d="m 4106.19,2162.71 c 0,-10.12 -8.2,-18.33 -18.33,-18.33 -10.12,0 -18.33,8.21 -18.33,18.33 0,10.12 8.21,18.33 18.33,18.33 10.13,0 18.33,-8.21 18.33,-18.33"
         style="fill:#f9a743;fill-opacity:1;fill-rule:nonzero;stroke:none"
         id="path300" /><path
         d="m 3981.87,2047.95 c 0,-10.13 -8.21,-18.33 -18.33,-18.33 -10.12,0 -18.33,8.2 -18.33,18.33 0,10.12 8.21,18.33 18.33,18.33 10.12,0 18.33,-8.21 18.33,-18.33"
         style="fill:#f9a743;fill-opacity:1;fill-rule:nonzero;stroke:none"
         id="path302" /><path
         d="m 4042.43,1928.8 c 0,-10.13 -8.2,-18.33 -18.33,-18.33 -10.12,0 -18.33,8.2 -18.33,18.33 0,10.13 8.21,18.33 18.33,18.33 10.13,0 18.33,-8.2 18.33,-18.33"
         style="fill:#f9a743;fill-opacity:1;fill-rule:nonzero;stroke:none"
         id="path304" /><path
         d="m 3998.6,1636.71 c 0,-10.13 -8.2,-18.33 -18.33,-18.33 -10.12,0 -18.33,8.2 -18.33,18.33 0,10.13 8.21,18.33 18.33,18.33 10.13,0 18.33,-8.2 18.33,-18.33"
         style="fill:#f9a743;fill-opacity:1;fill-rule:nonzero;stroke:none"
         id="path306" /><path
         d="m 4069.53,1733.94 c 0,-10.12 -8.2,-18.33 -18.33,-18.33 -10.13,0 -18.33,8.21 -18.33,18.33 0,10.12 8.2,18.33 18.33,18.33 10.13,0 18.33,-8.21 18.33,-18.33"
         style="fill:#f9a743;fill-opacity:1;fill-rule:nonzero;stroke:none"
         id="path308" /><path
         d="m 2375.76,2080.48 c 0,-10.12 -8.21,-18.33 -18.33,-18.33 -10.13,0 -18.33,8.21 -18.33,18.33 0,10.13 8.2,18.34 18.33,18.34 10.12,0 18.33,-8.21 18.33,-18.34"
         style="fill:#f9a743;fill-opacity:1;fill-rule:nonzero;stroke:none"
         id="path310" /><path
         d="m 2477.18,2105.32 c 0,-10.11 -8.2,-18.33 -18.32,-18.33 -10.13,0 -18.33,8.22 -18.33,18.33 0,10.13 8.2,18.34 18.33,18.34 10.12,0 18.32,-8.21 18.32,-18.34"
         style="fill:#f9a743;fill-opacity:1;fill-rule:nonzero;stroke:none"
         id="path312" /><path
         d="m 2448.29,1684.53 c 0,-10.13 -8.21,-18.33 -18.33,-18.33 -10.13,0 -18.33,8.2 -18.33,18.33 0,10.12 8.2,18.33 18.33,18.33 10.12,0 18.33,-8.21 18.33,-18.33"
         style="fill:#f9a743;fill-opacity:1;fill-rule:nonzero;stroke:none"
         id="path314" /><path
         d="m 2534.77,1585.67 c 0,-10.12 -8.21,-18.33 -18.33,-18.33 -10.13,0 -18.33,8.21 -18.33,18.33 0,10.13 8.2,18.33 18.33,18.33 10.12,0 18.33,-8.2 18.33,-18.33"
         style="fill:#f9a743;fill-opacity:1;fill-rule:nonzero;stroke:none"
         id="path316" /><path
         d="m 2495.12,1902.5 c 0,-10.13 -8.21,-18.33 -18.33,-18.33 -10.13,0 -18.33,8.2 -18.33,18.33 0,10.13 8.2,18.33 18.33,18.33 10.12,0 18.33,-8.2 18.33,-18.33"
         style="fill:#f9a743;fill-opacity:1;fill-rule:nonzero;stroke:none"
         id="path318" /><g
         id="g320"
         transform="scale(10)"><text
           transform="matrix(1,0,0,-1,302.73,178.933)"
           style="font-variant:normal;font-weight:800;font-size:18.171px;font-family:Montserrat;-inkscape-font-specification:Montserrat-ExtraBold;writing-mode:lr-tb;fill:#ffffff;fill-opacity:1;fill-rule:nonzero;stroke:none"
           id="text324"><tspan
             x="0 15.5542 28.21998"
             y="0"
             sodipodi:role="line"
             id="tspan322">NFT</tspan></text></g></g></g></svg>
